HIERARCHY
ROOT Hips
{
	OFFSET 0.000000 0.000000 0.000000
	CHANNELS 6 Xposition Yposition Zposition Zrotation Yrotation Xrotation 
	JOINT LHipJoint
	{
		OFFSET 0.000000 0.000000 0.000000
		CHANNELS 3 Zrotation Yrotation Xrotation
		JOINT LeftUpLeg
		{
			OFFSET 1.363060 -1.794630 0.839290
			CHANNELS 3 Zrotation Yrotation Xrotation
			JOINT LeftLeg
			{
				OFFSET 2.448110 -6.726130 0.000000
				CHANNELS 3 Zrotation Yrotation Xrotation
				JOINT LeftFoot
				{
					OFFSET 2.562200 -7.039590 0.000000
					CHANNELS 3 Zrotation Yrotation Xrotation
					JOINT LeftToeBase
					{
						OFFSET 0.157640 -0.433110 2.322550
						CHANNELS 3 Zrotation Yrotation Xrotation
						End Site
						{
							OFFSET 0.000000 0.000000 0.000000
						}
					}
				}
			}
		}
	}
	JOINT RHipJoint
	{
		OFFSET 0.000000 0.000000 0.000000
		CHANNELS 3 Zrotation Yrotation Xrotation
		JOINT RightUpLeg
		{
			OFFSET -1.305520 -1.794630 0.839290
			CHANNELS 3 Zrotation Yrotation Xrotation
			JOINT RightLeg
			{
				OFFSET -2.542530 -6.985550 0.000000
				CHANNELS 3 Zrotation Yrotation Xrotation
				JOINT RightFoot
				{
					OFFSET -2.568260 -7.056230 0.000000
					CHANNELS 3 Zrotation Yrotation Xrotation
					JOINT RightToeBase
					{
						OFFSET -0.164730 -0.452590 2.363150
						CHANNELS 3 Zrotation Yrotation Xrotation
						End Site
						{
							OFFSET 0.000000 0.000000 0.000000
						}
					}
				}
			}
		}
	}
}
MOTION
Frames: 22
Frame Time: 0.008333
-4.594910 16.655149 1.150217 -102.313723 87.844661 -86.280545 -8.690103 1.757914 3.663507 -23.085630 -0.978484 -41.856480 -3.317266 0.189359 22.313588 0.958066 3.054889 -8.165629 -179.873599 0.000000 -0.250400 10.823052 -5.223593 -0.949876 8.186587 -17.328620 -8.117189 1.314042 -2.759981 36.941049 0.805720 18.177819 15.942883 6.628500 0.000000 -82.733101
-4.432336 16.624293 1.155572 -100.010405 87.863089 -84.007393 -8.609412 1.773262 3.798216 -22.703211 -1.908648 -42.344837 -3.099543 0.402552 24.841451 1.138209 3.715381 -9.200517 -179.973700 -0.000000 -3.253900 11.082231 -5.129754 -0.985896 7.427665 -17.726762 -9.212149 1.088867 -2.872224 39.470861 0.709468 19.930839 17.792467 7.919700 0.000000 -82.649800
-4.276934 16.602352 1.158051 -94.289409 87.861845 -78.355336 -8.497904 1.825813 3.867283 -22.423920 -2.588252 -42.651654 -2.918930 0.588710 27.054030 1.310598 4.338335 -10.217281 179.905900 0.000000 -5.056100 11.355194 -4.964949 -1.011122 6.686848 -17.874948 -10.290950 0.842092 -2.957137 41.993366 0.586396 21.285791 19.679209 9.173600 0.000001 -81.907100
-4.128872 16.589693 1.157017 -84.343875 87.807771 -68.523815 -8.379014 1.931831 3.880122 -22.236695 -3.010631 -42.744530 -2.784530 0.749916 28.852292 1.477829 4.935623 -11.221749 179.766900 -0.000000 -5.915100 11.608195 -4.718288 -1.033538 5.980870 -17.788799 -11.325859 0.574072 -3.006642 44.476652 0.446854 22.113860 21.536013 10.262000 -0.000001 -80.585300
-3.987884 16.586220 1.152012 -70.498668 87.685189 -54.839643 -8.314927 2.079879 3.850045 -22.139338 -3.196181 -42.600587 -2.698529 0.889511 30.173158 1.640336 5.520004 -12.201565 179.612600 0.000000 -6.048001 11.771609 -4.398840 -1.065046 5.300911 -17.506854 -12.299667 0.290975 -3.021104 46.892922 0.298708 22.313802 23.295571 11.050600 -0.000000 -78.863700
-3.853360 16.591417 1.142502 -55.989763 87.527080 -40.532936 -8.372567 2.194743 3.781544 -22.123166 -3.199938 -42.192026 -2.648194 0.992532 31.011653 1.790707 6.081556 -13.122115 179.448299 -0.000000 -5.633500 11.784255 -4.077197 -1.113417 4.650204 -17.101220 -13.214469 0.020784 -3.031223 49.196874 0.144781 21.812855 24.890170 11.419500 0.000000 -76.987000
-3.724490 16.604440 1.128387 -44.534210 87.399304 -29.316500 -8.517962 2.215435 3.669346 -22.156492 -3.087639 -41.491627 -2.615803 1.034133 31.406783 1.920494 6.597036 -13.941450 179.282099 -0.000000 -4.838200 11.697747 -3.825255 -1.177088 4.051895 -16.658319 -14.072224 -0.209306 -3.073152 51.334897 -0.018289 20.590617 26.251910 11.290000 0.000000 -75.193800
-3.600168 16.624207 1.109566 -37.711526 87.314084 -22.766215 -8.663473 2.161909 3.516849 -22.174690 -2.889830 -40.528869 -2.592419 1.012555 31.420841 2.026184 7.043197 -14.634572 179.123400 0.000000 -3.835900 11.610580 -3.643913 -1.247378 3.554587 -16.212702 -14.860162 -0.400134 -3.147794 53.270748 -0.194506 18.674335 27.311796 10.631900 0.000000 -73.633600
-3.479145 16.649488 1.085999 -35.155955 87.246059 -20.507662 -8.769798 2.082251 3.341255 -22.129496 -2.625639 -39.370837 -2.575976 0.945858 31.115858 2.107738 7.410039 -15.188598 178.982200 0.000000 -2.812300 11.562013 -3.497638 -1.318587 3.182770 -15.763723 -15.569713 -0.565618 -3.235317 54.993021 -0.384115 16.150418 27.994446 9.476700 0.000000 -72.326700
-3.360237 16.679113 1.058117 -35.727973 87.185370 -21.389231 -8.845330 2.000249 3.161412 -22.008830 -2.328629 -38.077707 -2.563844 0.851260 30.551999 2.165428 7.697537 -15.594132 178.866500 -0.000000 -1.943500 11.540999 -3.365620 -1.389953 2.923453 -15.314794 -16.203906 -0.713027 -3.323279 56.499668 -0.583318 13.171046 28.227579 7.925900 0.000000 -71.180700
-3.242337 16.711943 1.026422 -38.709370 87.134783 -24.673689 -8.906323 1.919130 2.993139 -21.809444 -2.039501 -36.709611 -2.551058 0.739997 29.801953 2.199280 7.904928 -15.850946 178.781600 -0.000000 -1.360800 11.530426 -3.246825 -1.458043 2.765255 -14.869968 -16.780340 -0.842297 -3.409018 57.788157 -0.784898 9.937774 27.963858 6.136500 -0.000001 -70.059200
-3.124507 16.747053 0.991530 -43.617129 87.098838 -29.859041 -8.966489 1.836513 2.848528 -21.538309 -1.797303 -35.319548 -2.533350 0.620135 28.936751 2.210449 8.034887 -15.966997 178.729201 0.000000 -1.120100 11.516452 -3.146134 -1.518777 2.693030 -14.433838 -17.321166 -0.950898 -3.493318 58.858029 -0.978818 6.683405 27.199209 4.298000 -0.000001 -68.826800
-3.006059 16.783711 0.954105 -50.188728 87.075416 -36.664043 -9.036355 1.750073 2.736894 -21.206241 -1.632281 -33.957675 -2.508080 0.498089 28.021848 2.201262 8.092258 -15.959171 178.707800 0.000000 -1.195700 11.488478 -3.068708 -1.566419 2.693467 -14.006329 -17.852301 -1.036005 -3.576571 59.711569 -1.153737 3.634598 25.981552 2.592200 0.000000 -67.389500
-2.886583 16.821361 0.914785 -58.165695 87.054490 -44.814847 -9.124194 1.660034 2.664385 -20.829121 -1.562822 -32.665057 -2.474896 0.379080 27.107132 2.175235 8.086055 -15.849485 178.713501 -0.000001 -1.498601 11.437600 -3.015823 -1.595123 2.751507 -13.582724 -18.398436 -1.095753 -3.656764 60.353543 -1.299292 0.975582 24.410269 1.157000 0.000001 -65.781500
-2.765951 16.859610 0.874149 -67.177349 87.019349 -53.933000 -9.234675 1.570035 2.632494 -20.426106 -1.591954 -31.466626 -2.435762 0.267229 26.222442 2.136207 8.026479 -15.662708 178.740600 0.000000 -1.908200 11.358173 -2.983185 -1.601021 2.848961 -13.156380 -18.975290 -1.129977 -3.729307 60.790799 -1.407856 -1.175867 22.618650 0.064101 0.000000 -64.133001
-2.644301 16.898185 0.832649 -76.741327 86.950309 -63.536155 -9.367785 1.485785 2.638506 -20.013644 -1.708462 -30.372263 -2.393823 0.165173 25.379052 2.087873 7.923526 -15.423851 178.783200 -0.000000 -2.304300 11.249503 -2.962830 -1.582868 2.968959 -12.721600 -19.590416 -1.140328 -3.788943 61.036485 -1.474444 -2.769982 20.734773 -0.678501 0.000000 -62.417200
-2.522006 16.936855 0.790581 -86.275271 86.830614 -73.047941 -9.518734 1.413594 2.676248 -19.604370 -1.890622 -29.377508 -2.352466 0.073877 24.573174 2.033303 7.785628 -15.154659 178.835800 0.000000 -2.589100 11.116113 -2.945036 -1.541148 3.098781 -12.273141 -20.242867 -1.129662 -3.830426 61.101568 -1.499005 -3.824202 18.884178 -1.113400 0.000000 -60.811301
-2.399516 16.975365 0.748223 -95.229303 86.652172 -81.930442 -9.678905 1.358203 2.736829 -19.207789 -2.112613 -28.464269 -2.314533 -0.007562 23.788076 1.974966 7.620916 -14.870571 178.894101 -0.000000 -2.697400 10.966820 -2.920713 -1.478256 3.227855 -11.807650 -20.922492 -1.101496 -3.850174 60.992693 -1.486468 -4.406824 17.180423 -1.311500 -0.000000 -59.540500
-2.277442 17.013425 0.705570 -103.252176 86.412330 -89.849187 -9.840787 1.320865 2.809368 -18.826464 -2.344720 -27.605864 -2.281540 -0.081139 23.004378 1.913816 7.432637 -14.580895 178.955300 -0.000000 -2.597800 10.810487 -2.885265 -1.399597 3.351981 -11.328969 -21.613591 -1.059153 -3.848695 60.723865 -1.443350 -4.609785 15.676511 -1.345800 -0.000000 -58.523099
-2.156395 17.050724 0.662615 -110.180393 86.114550 -96.658534 -9.998451 1.300371 2.883185 -18.460668 -2.560832 -26.772354 -2.253945 -0.149241 22.202555 1.850005 7.222720 -14.287373 179.017900 -0.000000 -2.289600 10.654507 -2.836610 -1.310933 3.469750 -10.841654 -22.297675 -1.005727 -3.828025 60.303832 -1.379831 -4.546541 14.406663 -1.285199 0.000000 -57.811200
-2.036881 17.086857 0.619367 -116.024026 85.765779 -102.384964 -10.148213 1.293842 2.949149 -18.110299 -2.742351 -25.935822 -2.231314 -0.213909 21.367664 1.783399 6.993373 -13.986366 179.081800 0.000000 -1.799000 10.503867 -2.774763 -1.218368 3.580031 -10.351898 -22.956050 -0.944104 -3.791419 59.741505 -1.307493 -4.335451 13.376532 -1.185500 0.000000 -57.453500
-1.919335 17.121443 0.575798 -120.897067 85.372441 -107.155387 -10.289253 1.297641 3.000733 -17.772528 -2.877444 -25.077594 -2.212560 -0.276137 20.495385 1.713363 6.744181 -13.672326 179.147000 -0.000000 -1.174300 10.360462 -2.701484 -1.127271 3.685502 -9.865677 -23.574828 -0.876666 -3.742648 59.049473 -1.237099 -4.086249 12.556829 -1.087600 0.000000 -57.354200
